<?xml version="1.0" encoding="UTF-8"?>
<svg width="680px" height="92px" viewBox="0 0 170 23" version="1.1" xmlns="http://www.w3.org/2000/svg" xmlns:xlink="http://www.w3.org/1999/xlink">
    <title>LOGO</title>
    <defs>
        <polygon id="path-1" points="0 0.120550265 41.4135817 0.120550265 41.4135817 19.4607407 0 19.4607407"></polygon>
    </defs>
    <g id="Pages" stroke="none" stroke-width="1" fill="none" fill-rule="evenodd">
        <g id="index" transform="translate(-15.000000, -22.000000)">
            <g id="HEADER" transform="translate(15.000000, 20.000000)">
                <g id="WRAPPER">
                    <g id="LOGO" transform="translate(0.000000, 2.000000)">
                        <g id="TN_Logo_White_NoBadge">
                            <g id="Group-4" transform="translate(0.000000, 2.433862)">
                                <mask id="mask-2" fill="white">
                                    <use xlink:href="#path-1"></use>
                                </mask>
                                <g id="Clip-2"></g>
                                <polyline id="Fill-1" fill="#FFFFFF" mask="url(#mask-2)" points="23.3342763 10.0789841 30.9469804 10.1023492 41.034264 10.1023492 41.4135817 7.45752381 23.7118604 7.45752381 23.3342763 10.0789841"></polyline>
                                <polyline id="Fill-3" fill="#FFFFFF" mask="url(#mask-2)" points="0 2.76571429 7.51423404 2.76571429 5.29103043 18.1636402 7.78051919 19.4708995 10.1893943 2.76571429 17.7005078 2.76571429 18.0798254 0.120550265 0.379144284 0.120550265 0 2.76571429"></polyline>
                            </g>
                            <polyline id="Fill-5" fill="#FFFFFF" points="86.7791872 15.0621199 73.5399468 0 70.6810036 19.8408983 73.4259519 19.8408983 75.2993102 6.84264197 88.5387284 21.9047619 91.3978495 2.06351599 88.653079 2.06351599 86.7791872 15.0621199"></polyline>
                            <path d="M102.410386,5.03604677 L115.078475,5.03604677 L113.288717,16.8690483 L100.620449,16.8690483 L102.410386,5.03604677 Z M97.4910394,19.4708995 L115.648267,19.4708995 L118.207885,2.43386243 L100.050835,2.43386243 L97.4910394,19.4708995 L97.4910394,19.4708995 Z" id="Fill-6" fill="#FFFFFF"></path>
                            <polyline id="Fill-7" fill="#FFFFFF" points="124.301075 19.4708995 126.823173 19.4708995 129.175627 2.43386243 126.653203 2.43386243 124.301075 19.4708995"></polyline>
                            <polyline id="Fill-8" fill="#FFFFFF" points="52.4437909 2.43386243 48.4135967 2.43386243 55.9566977 11.1096979 46.3082437 19.4708995 49.7017636 19.4708995 59.7132616 10.795064 52.4437909 2.43386243"></polyline>
                            <polyline id="Fill-9" fill="#FFFFFF" points="59.7132616 19.4708995 62.235365 19.4708995 64.5878136 2.43386243 62.0653833 2.43386243 59.7132616 19.4708995"></polyline>
                            <polygon id="Fill-10" fill="#FFFFFF" points="137.761726 2.43386243 135.268817 19.4708995 137.942191 19.4708995 140.058583 5.03604677 150.640369 5.03604677 143.418138 11.1108639 150.894093 19.4708995 155.039243 19.4708995 147.280986 10.795064 157.204301 2.43386243"></polygon>
                            <polyline id="Fill-11" fill="#FFFFFF" points="21.9354839 19.4708995 39.831516 19.4708995 40.2150538 17.037037 22.3200734 17.0420232 21.9354839 19.4708995"></polyline>
                            <polyline id="Fill-12" fill="#FFFFFF" points="24.3727599 4.84622349 32.0697899 4.86772487 42.2688104 4.86772487 42.6523297 2.43386243 24.7543511 2.43386243 24.3727599 4.84622349"></polyline>
                            <polyline id="Fill-13" fill="#FFFFFF" points="159.641577 2.43386243 163.297491 2.43386243 163.297491 3.26177615 161.901505 3.26177615 161.901505 7.3015873 161.03706 7.3015873 161.03706 3.26177615 159.641577 3.26177615 159.641577 2.43386243"></polyline>
                            <polyline id="Fill-14" fill="#FFFFFF" points="164.516129 2.43386243 165.487184 2.43386243 166.959387 5.57003162 168.419626 2.43386243 169.390681 2.43386243 169.390681 7.3015873 168.609716 7.3015873 168.609716 3.810806 167.225912 6.80079781 166.6804 6.80079781 165.290282 3.810806 165.290282 7.3015873 164.516129 7.3015873 164.516129 2.43386243"></polyline>
                        </g>
                    </g>
                </g>
            </g>
        </g>
    </g>
</svg>