<svg class="logo-image" viewBox="0 0 171 40" version="1.1" xmlns="http://www.w3.org/2000/svg" xmlns:xlink="http://www.w3.org/1999/xlink" width="340"  height="80" >
                <g stroke="none" stroke-width="1" fill="none" fill-rule="nonzero">
                    <polygon class="logo-triangle" points="19.5 13.5 15.5 20 23.5 20" fill="#FFFFFF"></polygon>
                    <path class="logo-planes" d="M32,25.0900383 L27.344086,29.2694764 L27.4892473,36 L17.6075269,25.1714559 L32,25.0900383 Z M14.2258065,12.5083014 L7.10215054,25.133461 L5.84408602,18.967433 L0,15.7324393 L14.2258065,12.5083014 Z M31.3494624,2 L27.0053763,16.052682 L19.7419355,3.50893997 L25.655914,5.49553001 L31.3494624,2 Z" fill="#2FC8CE"></path>
                    <path class="logo-text" d="M65.8811752,19.4538362 L64.6121872,15.9947984 L57.3867247,15.9947984 L56.1436344,19.4538362 L52,19.4538362 L59.0959739,1.24837451 L62.7993471,1.24837451 L70.1284004,19.4538362 L65.8811752,19.4538362 Z M60.9865071,6.05981795 L58.629815,12.5617685 L63.3690968,12.5617685 L60.9865071,6.05981795 Z M72.1743199,3.53706112 L72.1743199,6.03961325e-14 L75.9553863,6.03961325e-14 L75.9553863,3.53706112 L72.1743199,3.53706112 Z M72.1743199,19.4538362 L72.1743199,5.40962289 L75.9553863,5.40962289 L75.9553863,19.4538362 L72.1743199,19.4538362 Z M95.4822633,5.07152146 C96.9325424,5.07152146 98.1195091,5.5916723 99.0431991,6.6319896 C99.9668892,7.67230689 100.428727,9.00736075 100.428727,10.6371912 L100.428727,19.4538362 L96.6476605,19.4538362 L96.6476605,11.2613784 C96.6476605,9.35413004 95.9397966,8.40052016 94.5240479,8.40052016 C93.9715606,8.40052016 93.4924577,8.53489245 93.0867247,8.80364109 C92.6809917,9.07238974 92.3745386,9.46683745 92.1673558,9.9869961 C91.960173,10.5071547 91.8565832,11.1313358 91.8565832,11.8595579 L91.8565832,19.4538362 L88.15321,19.4538362 L88.15321,11.2613784 C88.15321,9.35413004 87.4712439,8.40052016 86.1072905,8.40052016 C85.2440291,8.40052016 84.5706949,8.70394148 84.0872688,9.31079324 C83.6038426,9.91764499 83.3621328,10.7672247 83.3621328,11.8595579 L83.3621328,19.4538362 L79.5810664,19.4538362 L79.5810664,5.40962289 L82.2226333,5.40962289 L82.9218716,7.15214564 C83.4398286,6.51061666 84.0656836,6.00346955 84.7994559,5.63068921 C85.5332283,5.25790884 86.3058354,5.07152146 87.1173014,5.07152146 C87.997828,5.07152146 88.7920165,5.27091261 89.4998912,5.66970091 C90.2077658,6.06848922 90.7602445,6.62331675 91.1573449,7.33420026 C91.3299975,7.09145958 91.5112793,6.87039543 91.701197,6.6710013 C91.8911146,6.47160717 92.0982942,6.28955435 92.3227421,6.12483745 C92.5471901,5.96012056 92.7802673,5.81274447 93.0219804,5.68270481 C93.2636935,5.55266515 93.5183522,5.44430039 93.785963,5.35760728 C94.0535738,5.27091417 94.3298134,5.20156073 94.6146899,5.14954486 C94.8995664,5.097529 95.1887543,5.07152146 95.4822633,5.07152146 Z M111.512949,5.01950585 C113.619307,5.01950585 115.367385,5.72170947 116.757236,7.12613784 C118.147087,8.53056621 118.842002,10.2990791 118.842002,12.4317295 C118.842002,14.56438 118.142771,16.3372275 116.744287,17.7503251 C115.345804,19.1634227 113.602041,19.869961 111.512949,19.869961 C110.079935,19.869961 108.793695,19.4798479 107.654189,18.6996099 L107.654189,24.5253576 L103.873123,24.5253576 L103.873123,5.40962289 L106.385201,5.40962289 L107.032644,6.6840052 C108.275741,5.57433344 109.769161,5.01950585 111.512949,5.01950585 Z M108.457018,15.1885566 C109.182158,15.9167787 110.092885,16.2808843 111.189227,16.2808843 C112.285569,16.2808843 113.196297,15.9167787 113.921436,15.1885566 C114.646576,14.4603345 115.00914,13.5414013 115.00914,12.4317295 C115.00914,11.7035074 114.845123,11.0446497 114.517084,10.4551365 C114.189044,9.86562343 113.735839,9.40615681 113.157454,9.07672302 C112.579069,8.74728923 111.927316,8.58257477 111.202176,8.58257477 C110.477036,8.58257477 109.820968,8.74728923 109.23395,9.07672302 C108.646932,9.40615681 108.193727,9.86562343 107.87432,10.4551365 C107.554913,11.0446497 107.395212,11.7035074 107.395212,12.4317295 C107.395212,13.5414013 107.749144,14.4603345 108.457018,15.1885566 Z M128.191077,19.8439532 C126.758063,19.8439532 125.463191,19.5231935 124.30642,18.8816645 C123.149649,18.2401355 122.247552,17.3515445 121.600109,16.2158648 C120.952663,15.080185 120.628945,13.8188192 120.628945,12.4317295 C120.628945,10.2990791 121.345441,8.53056621 122.778455,7.12613784 C124.211469,5.72170947 126.015658,5.01950585 128.191077,5.01950585 C130.349231,5.01950585 132.144788,5.72170947 133.577802,7.12613784 C135.010816,8.53056621 135.727312,10.2990791 135.727312,12.4317295 C135.727312,14.5470413 135.0065,16.3112197 133.564853,17.7243173 C132.123207,19.1374149 130.331966,19.8439532 128.191077,19.8439532 Z M128.191077,16.2808843 C129.278787,16.2808843 130.167933,15.9211132 130.858542,15.2015605 C131.549151,14.4820077 131.89445,13.5587399 131.89445,12.4317295 C131.89445,11.3047191 131.549151,10.3814513 130.858542,9.66189857 C130.167933,8.9423458 129.27447,8.58257477 128.178128,8.58257477 C127.081786,8.58257477 126.188324,8.9423458 125.497715,9.66189857 C124.807106,10.3814513 124.461806,11.3047191 124.461806,12.4317295 C124.461806,12.9865654 124.552447,13.5067162 124.733732,13.9921977 C124.915017,14.4776791 125.169676,14.8851306 125.497715,15.2145644 C125.825754,15.5439982 126.218532,15.8040736 126.676061,15.9947984 C127.133589,16.1855233 127.63859,16.2808843 128.191077,16.2808843 Z M138.446572,3.53706112 L138.446572,6.03961325e-14 L142.227639,6.03961325e-14 L142.227639,3.53706112 L138.446572,3.53706112 Z M138.446572,19.4538362 L138.446572,5.40962289 L142.227639,5.40962289 L142.227639,19.4538362 L138.446572,19.4538362 Z M153.829815,5.07152146 C155.418216,5.07152146 156.674243,5.60467609 157.597933,6.6710013 C158.521623,7.73732651 158.98346,9.16340675 158.98346,10.9492848 L158.98346,19.4538362 L155.202394,19.4538362 L155.202394,11.5474642 C155.202394,9.44949101 154.39094,8.40052016 152.768009,8.40052016 C152.129195,8.40052016 151.5724,8.54789624 151.097606,8.8426528 C150.622812,9.13740935 150.260248,9.56219923 150.009902,10.1170351 C149.759556,10.671871 149.634385,11.3220595 149.634385,12.0676203 L149.634385,19.4538362 L145.853319,19.4538362 L145.853319,5.40962289 L148.44309,5.40962289 L149.194124,7.15214564 C149.453102,6.82271186 149.750923,6.53229427 150.087595,6.28088427 C150.424267,6.02947426 150.791148,5.81274474 151.188248,5.63068921 C151.585349,5.44863367 152.004024,5.30992679 152.444287,5.21456437 C152.884551,5.11920195 153.346389,5.07152146 153.829815,5.07152146 Z M169.290751,16.0728218 L171,16.0728218 L171,19.4538362 L168.332535,19.4538362 C167.313887,19.4538362 166.429057,19.254445 165.67802,18.8556567 C164.926982,18.4568684 164.352922,17.8803679 163.955822,17.1261378 C163.558721,16.3719116 163.360174,15.4746476 163.360174,14.4343303 L163.360174,8.45253576 L160.822198,8.45253576 L160.822198,7.64629389 L166.364309,1.74252276 L167.063547,1.74252276 L167.063547,5.40962289 L170.922307,5.40962289 L170.922307,8.45253576 L167.14124,8.45253576 L167.14124,13.9401821 C167.14124,14.6163883 167.326839,15.1408738 167.698041,15.5136541 C168.069244,15.8864344 168.600142,16.0728218 169.290751,16.0728218 Z M133.720239,28.2314694 C135.049662,28.2314694 136.148146,28.6605939 137.015724,29.5188557 C137.883301,30.3771174 138.317084,31.4650996 138.317084,32.7828349 C138.317084,34.1005701 137.883301,35.1885523 137.015724,36.046814 C136.148146,36.9050758 135.049662,37.3342003 133.720239,37.3342003 L130.703156,37.3342003 L130.703156,28.2314694 L133.720239,28.2314694 Z M133.681393,36.2678804 C134.700041,36.2678804 135.533076,35.9384515 136.180522,35.2795839 C136.827968,34.6207162 137.151687,33.7884749 137.151687,32.7828349 C137.151687,32.1152979 137.004935,31.5171245 136.711425,30.9882965 C136.417916,30.4594685 136.007874,30.0455152 135.481284,29.7464239 C134.954694,29.4473327 134.354737,29.2977893 133.681393,29.2977893 L131.829706,29.2977893 L131.829706,36.2678804 L133.681393,36.2678804 Z M140.013384,29.0897269 L140.013384,27.8283485 L141.204679,27.8283485 L141.204679,29.0897269 L140.013384,29.0897269 Z M140.06518,37.3342003 L140.06518,30.3120936 L141.165832,30.3120936 L141.165832,37.3342003 L140.06518,37.3342003 Z M149.155277,30.3120936 L149.893362,30.3120936 L149.893362,36.3459038 C149.893362,37.4815835 149.586909,38.3745091 148.973993,39.0247074 C148.361078,39.6749057 147.523727,40 146.461915,40 C145.607286,40 144.888632,39.7876051 144.30593,39.3628088 C143.723229,38.9380126 143.336925,38.3528429 143.147008,37.6072822 L144.247661,37.6072822 C144.403047,38.0407477 144.681445,38.3788458 145.082862,38.6215865 C145.484279,38.8643272 145.943958,38.9856957 146.461915,38.9856957 C147.16979,38.9856957 147.737375,38.7624643 148.16469,38.3159948 C148.592004,37.8695253 148.805658,37.2605153 148.805658,36.4889467 L148.805658,36.0598179 C148.140947,36.7620321 147.294964,37.1131339 146.267682,37.1131339 C145.292197,37.1131339 144.474269,36.7793705 143.813874,36.1118336 C143.153479,35.4442966 142.823286,34.6207244 142.823286,33.6410923 C142.823286,32.9995633 142.974355,32.4122263 143.276496,31.8790637 C143.578638,31.3459011 143.992997,30.9254458 144.519587,30.6176853 C145.046176,30.3099248 145.628869,30.1560468 146.267682,30.1560468 C146.811537,30.1560468 147.318696,30.2665789 147.789173,30.4876463 C148.25965,30.7087137 148.654587,31.0143023 148.973993,31.4044213 L149.155277,30.3120936 Z M146.384222,36.046814 C146.84175,36.046814 147.25611,35.9427839 147.627312,35.7347204 C147.998514,35.526657 148.287703,35.240574 148.494886,34.8764629 C148.702069,34.5123519 148.805658,34.1005658 148.805658,33.6410923 C148.805658,32.9388781 148.576897,32.3602103 148.119369,31.9050715 C147.66184,31.4499327 147.083464,31.2223667 146.384222,31.2223667 C145.68498,31.2223667 145.104445,31.4521 144.642601,31.9115735 C144.180756,32.3710469 143.949837,32.9475475 143.949837,33.6410923 C143.949837,34.3259679 144.180756,34.8981338 144.642601,35.3576073 C145.104445,35.8170807 145.68498,36.046814 146.384222,36.046814 Z M152.055822,29.0897269 L152.055822,27.8283485 L153.247116,27.8283485 L153.247116,29.0897269 L152.055822,29.0897269 Z M152.107617,37.3342003 L152.107617,30.3120936 L153.20827,30.3120936 L153.20827,37.3342003 L152.107617,37.3342003 Z M158.31012,36.3068921 L159.074102,36.3068921 L159.074102,37.3342003 L158.167682,37.3342003 C157.416645,37.3342003 156.82532,37.1153034 156.393689,36.6775033 C155.962058,36.2397031 155.746246,35.6393623 155.746246,34.8764629 L155.746246,31.313394 L154.516104,31.313394 L154.516104,31.1183355 L156.678564,28.8296489 L156.846899,28.8296489 L156.846899,30.3120936 L159.035256,30.3120936 L159.035256,31.313394 L156.846899,31.313394 L156.846899,34.8374512 C156.846899,35.1582158 156.90301,35.4269603 157.015234,35.6436931 C157.127458,35.8604259 157.293633,36.0251403 157.513765,36.1378414 C157.733897,36.2505424 157.999345,36.3068921 158.31012,36.3068921 Z M166.506746,30.3120936 L167.387269,30.3120936 L167.387269,37.3342003 L166.4679,37.3342003 L166.35136,36.2678804 C166.023321,36.6579974 165.624068,36.9592534 165.153591,37.1716515 C164.683114,37.3840496 164.167322,37.4902471 163.606202,37.4902471 C162.578921,37.4902471 161.719989,37.1413125 161.02938,36.443433 C160.338771,35.7455535 159.993471,34.8721336 159.993471,33.8231469 C159.993471,32.7741603 160.338771,31.9007404 161.02938,31.2028609 C161.719989,30.5049814 162.578921,30.1560468 163.606202,30.1560468 C164.175955,30.1560468 164.696062,30.2644116 165.16654,30.4811443 C165.637017,30.697876 166.03627,31.0012984 166.364309,31.3914174 L166.506746,30.3120936 Z M161.845158,35.6827048 C162.337217,36.1768555 162.954439,36.4239272 163.696844,36.4239272 C164.439249,36.4239272 165.052156,36.1768555 165.535582,35.6827048 C166.019008,35.1885541 166.260718,34.5687077 166.260718,33.8231469 C166.260718,33.0775862 166.019008,32.4577398 165.535582,31.9635891 C165.052156,31.4694383 164.439249,31.2223667 163.696844,31.2223667 C162.954439,31.2223667 162.339375,31.4716057 161.851632,31.970091 C161.363889,32.4685764 161.120022,33.0862555 161.120022,33.8231469 C161.120022,34.5600384 161.361732,35.1798848 161.845158,35.6827048 Z M169.601523,37.3342003 L169.601523,27.8023407 L170.702176,27.8023407 L170.702176,37.3342003 L169.601523,37.3342003 Z" fill="#FFFFFF"></path>
                </g>
            </svg>