<?xml version="1.0" encoding="utf-8"?>
<!-- Generator: Adobe Illustrator 23.0.6, SVG Export Plug-In . SVG Version: 6.00 Build 0)  -->
<svg version="1.1" id="Layer_1" xmlns="http://www.w3.org/2000/svg" xmlns:xlink="http://www.w3.org/1999/xlink" x="0px" y="0px"
	 viewBox="0 0 223.1 97.023" enable-background="new 0 0 223.1 97.023" xml:space="preserve">
<g>
	<path opacity="0.55" fill="#FFFFFF" d="M38.111,38.794V28.226l10.84,7.989c3.754,2.803,4.466,6.883,4.378,6.781
		c-2.444-2.892-5.708-4.161-7.955-4.195L38.111,38.794z"/>
	<g>
		<rect x="59.207" y="41.075" fill="#FFFFFF" width="8.111" height="27.951"/>
		<rect x="73.427" y="27.873" fill="#FFFFFF" width="8.111" height="41.147"/>
		<rect x="87.641" y="27.873" fill="#FFFFFF" width="8.111" height="41.147"/>
		<path fill="#FFFFFF" d="M63.321,27.371c-2.701,0-4.887,2.186-4.887,4.887s2.186,4.887,4.887,4.887
			c2.701,0,4.887-2.186,4.887-4.887C68.208,29.556,66.022,27.371,63.321,27.371z"/>
		<path fill="#FFFFFF" d="M45.211,59.361c0,1.245-1.134,2.267-2.416,2.267h-6.923V48.324h6.923c1.29,0,2.416,1.01,2.416,2.267
			V59.361z M35.926,41.075V27.887h-8.07v41.126h16.888c4.751,0,8.6-3.849,8.6-8.6V49.675c0-4.751-3.849-8.6-8.6-8.6H35.926z"/>
	</g>
	<g opacity="0.25">
		<path fill="#FFFFFF" d="M118.891,69.841c-8.267,0-10.331-5.165-10.331-9.713V50.062c0-5.525,2.946-9.761,10.229-9.761
			c7.181,0,9.713,3.407,9.713,8.009v2.321h-4.235v-1.914c0-2.735-1.391-4.806-5.369-4.806c-4.595,0-5.993,2.43-5.993,6.197v9.299
			c0,3.72,1.548,6.713,6.041,6.713c3.978,0,5.369-1.86,5.369-4.65v-1.853h4.235v2.063C128.55,66.277,125.706,69.841,118.891,69.841z
			"/>
		<path fill="#FFFFFF" d="M143.116,69.841c-8.159,0-10.487-4.751-10.487-10.073v-9.245c0-4.907,2.532-10.229,10.847-10.229
			c8.369,0,10.589,5.165,10.589,9.971v9.401C154.064,64.526,152.001,69.841,143.116,69.841z M143.476,66.121
			c4.806,0,6.251-2.946,6.251-6.713v-8.885c0-3.509-1.242-6.509-6.251-6.509c-4.806,0-6.509,2.946-6.509,6.665v8.675
			C136.966,63.542,138.568,66.121,143.476,66.121z"/>
		<path fill="#FFFFFF" d="M158.87,69.02V41.122h3.821l0.156,3.876c1.242-2.376,3.923-4.65,8.213-4.65
			c4.392,0,6.665,2.274,7.595,4.907c1.548-2.735,4.235-4.907,8.417-4.907c6.251,0,8.159,4.493,8.159,8.831v19.833h-4.29V50.32
			c0-3.462-0.876-6.251-5.064-6.251c-4.548,0-6.665,3.564-6.665,6.15V69.02h-4.337V49.906c0-3.048-0.876-5.837-5.064-5.837
			c-4.493,0-6.665,3.564-6.665,6.15V69.02H158.87z"/>
		<circle fill="#FFFFFF" cx="102.75" cy="66.848" r="3.014"/>
		<path fill="#FFFFFF" d="M197.573,41.837c-0.023-0.024-0.035-0.052-0.035-0.086v-0.323c0-0.033,0.012-0.062,0.035-0.085
			c0.024-0.024,0.052-0.036,0.086-0.036h2.451c0.034,0,0.062,0.012,0.085,0.036c0.024,0.024,0.036,0.052,0.036,0.085v0.323
			c0,0.034-0.012,0.062-0.036,0.086c-0.023,0.023-0.052,0.035-0.085,0.035h-0.867c-0.034,0-0.05,0.017-0.05,0.05v2.804
			c0,0.034-0.012,0.062-0.036,0.085c-0.023,0.024-0.052,0.035-0.085,0.035h-0.414c-0.034,0-0.062-0.011-0.086-0.035
			c-0.023-0.023-0.035-0.052-0.035-0.085v-2.804c0-0.033-0.017-0.05-0.05-0.05h-0.827C197.626,41.872,197.597,41.86,197.573,41.837z
			 M203.156,41.307h0.433c0.034,0,0.062,0.012,0.086,0.036c0.023,0.024,0.035,0.052,0.035,0.085v3.299
			c0,0.034-0.012,0.062-0.035,0.085c-0.024,0.024-0.052,0.035-0.086,0.035h-0.423c-0.034,0-0.062-0.011-0.085-0.035
			c-0.024-0.023-0.036-0.052-0.036-0.085v-2.289c0-0.021-0.007-0.034-0.02-0.04c-0.014-0.007-0.027,0-0.04,0.02l-0.525,0.767
			c-0.034,0.054-0.081,0.08-0.141,0.08h-0.121c-0.06,0-0.108-0.026-0.141-0.08l-0.535-0.767c-0.014-0.02-0.027-0.026-0.04-0.02
			c-0.014,0.007-0.021,0.02-0.021,0.04v2.289c0,0.034-0.012,0.062-0.035,0.085c-0.024,0.024-0.052,0.035-0.086,0.035h-0.414
			c-0.033,0-0.062-0.011-0.085-0.035c-0.024-0.023-0.035-0.052-0.035-0.085v-3.299c0-0.033,0.011-0.062,0.035-0.085
			c0.023-0.024,0.052-0.036,0.085-0.036h0.434c0.06,0,0.107,0.027,0.141,0.081l0.716,1.039c0.014,0.014,0.029,0.021,0.046,0.021
			s0.028-0.007,0.035-0.021l0.717-1.039C203.048,41.334,203.096,41.307,203.156,41.307z"/>
	</g>
</g>
</svg>
