<svg width="1003" height="461" viewBox="0 0 1003 461" fill="none" xmlns="http://www.w3.org/2000/svg">
<path d="M188 432C471.764 432 352.755 147 501 147" stroke="#748DA5" stroke-width="2"/>
<path d="M34 431C457.379 431 279.816 230 501 230" stroke="#748DA5" stroke-width="2"/>
<path d="M338 432C485.775 432 423.799 29 501 29" stroke="#748DA5" stroke-width="2"/>
<path d="M0.940369 435.937C0.354019 436.522 0.353104 437.472 0.938325 438.058L10.475 447.624C11.0603 448.211 12.01 448.213 12.5964 447.628C13.1827 447.044 13.1836 446.094 12.5984 445.507L4.12132 437.004L12.6148 428.536C13.2011 427.952 13.202 427.002 12.6168 426.415C12.0316 425.828 11.0818 425.826 10.4955 426.411L0.940369 435.937ZM501.501 436.514L2.00145 435.5L1.99856 438.5L501.499 439.514L501.501 436.514Z" fill="#748DA5"/>
<path d="M815 432C530.33 432 649.719 147 501 147" stroke="#748DA5" stroke-width="2"/>
<path d="M969 431C544.714 431 722.657 230 501 230" stroke="#748DA5" stroke-width="2"/>
<path d="M665 432C516.319 432 578.675 29 501 29" stroke="#748DA5" stroke-width="2"/>
<path d="M1002.06 435.937C1002.65 436.522 1002.65 437.472 1002.06 438.058L992.525 447.624C991.94 448.211 990.99 448.213 990.404 447.628C989.817 447.044 989.816 446.094 990.402 445.507L998.879 437.004L990.385 428.536C989.799 427.952 989.798 427.002 990.383 426.415C990.968 425.828 991.918 425.826 992.505 426.411L1002.06 435.937ZM501.499 436.514L1001 435.5L1001 438.5L501.501 439.514L501.499 436.514Z" fill="#748DA5"/>
<path d="M499.939 460.061C500.525 460.646 501.475 460.646 502.061 460.061L511.607 450.515C512.192 449.929 512.192 448.979 511.607 448.393C511.021 447.808 510.071 447.808 509.485 448.393L501 456.879L492.515 448.393C491.929 447.808 490.979 447.808 490.393 448.393C489.808 448.979 489.808 449.929 490.393 450.515L499.939 460.061ZM499.5 18L499.5 459H502.5L502.5 18H499.5Z" fill="#748DA5"/>
<path d="M502.061 0.939309C501.475 0.353523 500.525 0.353523 499.939 0.939309L490.393 10.4853C489.808 11.071 489.808 12.0208 490.393 12.6066C490.979 13.1924 491.929 13.1924 492.515 12.6066L501 4.12129L509.485 12.6066C510.071 13.1924 511.021 13.1924 511.607 12.6066C512.192 12.0208 512.192 11.071 511.607 10.4853L502.061 0.939309ZM502.5 459V1.99997H499.5V459H502.5Z" fill="#748DA5"/>
</svg>
