<svg width="409" height="393" viewBox="0 0 409 393" fill="none" xmlns="http://www.w3.org/2000/svg">
<circle cx="21.5" cy="161.5" r="20" stroke="#ffffff" stroke-width="3"/>
<circle cx="21.5" cy="91.5" r="20" stroke="#ffffff" stroke-width="3"/>
<circle cx="21.5" cy="231.5" r="20" stroke="#ffffff" stroke-width="3"/>
<circle cx="21.5" cy="301.5" r="20" stroke="#ffffff" stroke-width="3"/>
<circle cx="265.5" cy="126.5" r="20" stroke="#ffffff" stroke-width="3"/>
<circle cx="265.5" cy="56.5" r="20" stroke="#ffffff" stroke-width="3"/>
<circle cx="265.5" cy="196.5" r="20" stroke="#ffffff" stroke-width="3"/>
<circle cx="265.5" cy="336.5" r="20" stroke="#ffffff" stroke-width="3"/>
<circle cx="265.5" cy="266.5" r="20" stroke="#ffffff" stroke-width="3"/>
<circle cx="143.5" cy="21.5" r="20" stroke="#ffffff" stroke-width="3"/>
<circle cx="143.5" cy="161.5" r="20" stroke="#ffffff" stroke-width="3"/>
<circle cx="143.5" cy="91.5" r="20" stroke="#ffffff" stroke-width="3"/>
<circle cx="143.5" cy="231.5" r="20" stroke="#ffffff" stroke-width="3"/>
<circle cx="143.5" cy="371.5" r="20" stroke="#ffffff" stroke-width="3"/>
<circle cx="143.5" cy="301.5" r="20" stroke="#ffffff" stroke-width="3"/>
<circle cx="387.5" cy="126.5" r="20" stroke="#ffffff" stroke-width="3"/>
<circle cx="387.5" cy="196.5" r="20" stroke="#ffffff" stroke-width="3"/>
<circle cx="387.5" cy="266.5" r="20" stroke="#ffffff" stroke-width="3"/>
<path d="M41 94L123 23M41 94H123M41 94L123 304M41 94L123 372M41 94L123 233M41 94L123 162M123 23L41 162M123 23L41 233M123 23L41 304M41 162L123 94M41 162H123M41 162L123 304M41 162L123 372M41 162L123 233M123 94L41 233M123 94L41 304M41 233L123 162M41 233H123M41 233L123 304M41 233L123 372M123 162L41 304M41 304L123 233M41 304H123M41 304L123 372M163.5 23L245 56.5M163.5 23L245 128.5M163.5 23L245 197.5M163.5 23L245 266.5M163.5 23L245 338.5M245 56.5L163.5 94M245 56.5L163.5 372M245 56.5L163.5 304M245 56.5L163.5 233M245 56.5L163.5 162M163.5 94L245 128.5M163.5 94L245 197.5M163.5 94L245 266.5M163.5 94L245 338.5M245 128.5L163.5 162M245 128.5L163.5 372M245 128.5L163.5 304M245 128.5L163.5 233M163.5 162L245 197.5M163.5 162L245 266.5M163.5 162L245 338.5M245 197.5L163.5 233M245 197.5L163.5 372M245 197.5L163.5 304M163.5 233L245 266.5M163.5 233L245 338.5M245 266.5L163.5 304M245 266.5L163.5 372M163.5 304L245 338.5M245 338.5L163.5 372M285.5 56.5L367.5 128.5M285.5 56.5L367.5 197.5M285.5 56.5L367.5 266.5M367.5 128.5H285.5M367.5 128.5L285.5 338.5M367.5 128.5L285.5 197.5M367.5 128.5L285.5 266.5M285.5 128.5L367.5 197.5M285.5 128.5L367.5 266.5M367.5 197.5H285.5M367.5 197.5L285.5 338.5M367.5 197.5L285.5 266.5M285.5 197.5L367.5 266.5M367.5 266.5H285.5M367.5 266.5L285.5 338.5" stroke="#ffffff"/>
</svg>
